<svg xmlns="http://www.w3.org/2000/svg" viewBox="0 0 311 80" fill="none">
    <path
        d="M21.44 48.7585L21.8677 49.5415L19.9089 51.8123C19.7793 51.9614 19.6651 52.0896 19.5648 52.1969C19.4645 52.3041 19.3698 52.403 19.2806 52.4936C19.5815 52.4309 19.8783 52.3738 20.1708 52.3236C20.2084 52.3181 20.2335 52.3139 20.2474 52.3125L23.3904 51.8681L21.2979 54.3549C21.1962 54.4747 21.0917 54.5903 20.9872 54.7045C20.8813 54.8188 20.7741 54.9302 20.664 55.0389C20.7768 55.0068 20.9022 54.9762 21.0429 54.9483C21.1836 54.9205 21.3522 54.8912 21.55 54.862L24.5356 54.4217L24.9675 55.2116L18.8613 56.0907L21.036 53.4549C21.1335 53.3379 21.2282 53.2278 21.3216 53.1261C21.4135 53.023 21.5027 52.9283 21.589 52.8419C21.4372 52.8753 21.2937 52.9046 21.1586 52.9297C21.0234 52.9547 20.8925 52.9756 20.7671 52.9923L17.3984 53.4131L21.44 48.7585Z"
        fill="black" />
    <path
        d="M26.94 57.5383L27.6701 58.0538L26.9094 60.9543C26.8578 61.1452 26.8119 61.311 26.7701 61.4517C26.7283 61.5924 26.6865 61.7234 26.6447 61.8432C26.8871 61.6537 27.1281 61.4726 27.3691 61.2985C27.3998 61.2762 27.4207 61.2622 27.4318 61.2553L30.0593 59.4734L29.2736 62.6261C29.2346 62.778 29.1928 62.9284 29.1482 63.0775C29.1036 63.2266 29.0562 63.3743 29.0047 63.5205C29.0911 63.4425 29.1914 63.3589 29.3056 63.2726C29.4199 63.1862 29.5592 63.0859 29.7222 62.9716L32.209 61.2622L32.9445 61.7819L27.8498 65.2592L28.6439 61.9351C28.6801 61.7875 28.7177 61.6467 28.7553 61.5144C28.7929 61.382 28.832 61.2567 28.8696 61.141C28.7484 61.2385 28.6327 61.3277 28.5213 61.4099C28.4112 61.4921 28.3026 61.5673 28.1967 61.6384L25.3574 63.4982L26.94 57.5383Z"
        fill="black" />
    <path
        d="M35.1242 68.3339L35.0239 66.7722L32.9537 66.0143L31.8545 67.1372L30.9629 66.8112L35.4809 62.3071L36.0187 68.6627L35.1242 68.3339ZM33.5277 65.4222L34.9835 65.9558C34.9835 65.9558 34.9125 64.05 34.9055 63.9037C34.8122 64.0054 33.5277 65.4222 33.5277 65.4222Z"
        fill="black" />
    <path
        d="M39.2306 66.7553L38.9659 69.2295L38.123 69.139L38.7151 63.6082L39.969 63.7419C40.3368 63.7809 40.6196 63.8352 40.8174 63.9049C41.0152 63.9746 41.1796 64.0721 41.312 64.1989C41.4694 64.3507 41.5823 64.5374 41.6533 64.7589C41.7244 64.9804 41.7453 65.2173 41.7188 65.4694C41.6714 65.9124 41.5265 66.2482 41.2869 66.4767C41.0459 66.7037 40.7143 66.8208 40.2908 66.8263L41.9264 69.5458L40.9094 69.4371L39.3323 66.7664L39.2306 66.7553ZM39.3114 65.8525L39.4744 65.8692C39.9509 65.9208 40.2727 65.8985 40.4399 65.8038C40.6084 65.709 40.7074 65.521 40.7366 65.2395C40.7687 64.9344 40.7087 64.7115 40.5541 64.568C40.3995 64.4259 40.0958 64.3298 39.643 64.2811L39.48 64.2643L39.3114 65.8525Z"
        fill="black" />
    <path
        d="M43.4023 68.456L44.1129 68.0994C44.1895 68.346 44.3204 68.5313 44.5071 68.6553C44.6938 68.7792 44.9278 68.8378 45.2121 68.828C45.4809 68.8196 45.6913 68.7388 45.8445 68.5842C45.9978 68.4296 46.0702 68.2276 46.0633 67.9768C46.0535 67.6508 45.7735 67.368 45.2232 67.1284C45.1466 67.0921 45.0867 67.0671 45.0463 67.0503C44.4235 66.7717 44.007 66.514 43.7952 66.2785C43.5835 66.0431 43.472 65.7505 43.4609 65.4008C43.4469 64.9481 43.589 64.5761 43.8872 64.2849C44.1853 63.9938 44.5851 63.8405 45.0839 63.8252C45.4935 63.8127 45.839 63.8809 46.1204 64.03C46.4018 64.179 46.5996 64.4006 46.7153 64.6931L46.0201 65.0804C45.9031 64.9091 45.7763 64.7851 45.6411 64.7084C45.506 64.6318 45.3514 64.5956 45.18 64.6012C44.9376 64.6095 44.7453 64.6778 44.6074 64.8088C44.4681 64.9397 44.4026 65.1125 44.4096 65.3242C44.4207 65.6586 44.744 65.9595 45.3806 66.2284C45.4294 66.2493 45.4684 66.266 45.4963 66.2785C46.0535 66.514 46.4394 66.7494 46.6512 66.9849C46.8643 67.2203 46.9758 67.5184 46.9869 67.8807C47.0036 68.4073 46.8504 68.8308 46.5286 69.1512C46.2068 69.4716 45.7637 69.6416 45.1981 69.6583C44.7244 69.6737 44.333 69.5761 44.0237 69.3686C43.7158 69.1638 43.5082 68.8587 43.4023 68.456Z"
        fill="black" />
    <path
        d="M48.9847 69.1238L50.5102 63.7657L48.2282 64.3647L48.0332 63.6222L51.661 62.6707L50.1508 67.9814L52.8995 67.2611L53.1043 68.0441L48.9847 69.1238Z"
        fill="black" />
    <path
        d="M56.8359 60.2743L57.4851 59.6613L60.1767 60.9834C60.3537 61.0712 60.5069 61.1492 60.6365 61.2189C60.766 61.2885 60.8858 61.3554 60.9945 61.4195C60.858 61.145 60.727 60.872 60.6044 60.6017C60.5891 60.5669 60.5793 60.5432 60.5738 60.5307L59.3492 57.6023L62.2832 58.9982C62.4239 59.0665 62.5632 59.1375 62.6997 59.2113C62.8363 59.2852 62.9714 59.3604 63.1051 59.4398C63.0452 59.3395 62.9839 59.2253 62.9212 59.0957C62.8586 58.9662 62.7889 58.8101 62.7095 58.6276L61.5281 55.8511L62.1829 55.2339L64.5791 60.918L61.4793 59.4788C61.3414 59.4134 61.2118 59.3493 61.0892 59.2852C60.9666 59.2211 60.8524 59.1598 60.7465 59.0985C60.8176 59.2364 60.8831 59.3688 60.9402 59.4928C60.9987 59.6168 61.0516 59.738 61.1004 59.8564L62.3584 63.0091L56.8359 60.2743Z"
        fill="black" />
    <path d="M67.1161 57.3875L62.5117 54.2655L63.0188 53.5173L67.6232 56.6394L67.1161 57.3875Z" fill="black" />
    <path
        d="M68.9961 54.4162L63.957 52.0603L65.2722 49.2476L65.9674 49.5722L65.0353 51.5658L66.2989 52.1565L67.2309 50.1629L67.9498 50.4986L67.0178 52.4922L68.6464 53.2529L69.5784 51.2593L70.3112 51.602L68.9961 54.4162Z"
        fill="black" />
    <path
        d="M58.4956 65.5351L57.2822 64.5459L55.3192 65.5476L55.3944 67.1177L54.5488 67.5496L54.3203 61.1731L59.344 65.1032L58.4956 65.5351ZM55.276 64.7256L56.6566 64.0207C56.6566 64.0207 55.2119 62.7766 55.0991 62.6819C55.1102 62.8198 55.276 64.7256 55.276 64.7256Z"
        fill="black" />
    <path
        d="M20.2255 30.274L22.5131 31.3704L22.1411 32.1464L17.0449 29.7028L17.6454 28.4489C17.8237 28.077 17.9742 27.8136 18.0995 27.6576C18.2235 27.5016 18.3642 27.3818 18.5189 27.2954C18.7139 27.1923 18.934 27.1435 19.1778 27.1491C19.4216 27.1547 19.6654 27.216 19.9065 27.3316C20.1475 27.4472 20.3495 27.5991 20.5097 27.7886C20.6699 27.9766 20.7702 28.1787 20.8092 28.3946C20.8399 28.5687 20.8329 28.7526 20.7883 28.9477C20.7438 29.1427 20.6323 29.4241 20.454 29.7961L20.376 29.9591L20.2255 30.274ZM19.5721 29.8964L19.6738 29.6847C19.8939 29.2249 19.9914 28.8947 19.965 28.6941C19.9385 28.4935 19.7992 28.3319 19.5456 28.2107C19.274 28.0811 19.0441 28.07 18.8532 28.18C18.6638 28.2901 18.4632 28.5646 18.2528 29.0034L18.1511 29.2152L19.5721 29.8964Z"
        fill="black" />
    <path
        d="M24.2694 28.0424L19.7793 24.6096L21.6949 22.1047L22.3148 22.5784L20.9579 24.3547L22.0836 25.2157L23.4405 23.4394L24.0814 23.9298L22.7244 25.706L24.1747 26.815L25.5316 25.0387L26.185 25.5375L24.2694 28.0424Z"
        fill="black" />
    <path
        d="M27.1655 24.4201L23.5781 20.0526L24.5352 19.2669C25.158 18.7556 25.6219 18.4268 25.927 18.2819C26.2321 18.137 26.54 18.059 26.852 18.0492C27.263 18.0353 27.6573 18.1259 28.0362 18.3209C28.4152 18.516 28.7634 18.8085 29.0811 19.1958C29.4001 19.5831 29.6161 19.9802 29.7317 20.387C29.8473 20.7938 29.8585 21.1978 29.7665 21.6004C29.6969 21.9041 29.5659 22.1883 29.3737 22.4502C29.1814 22.7135 28.8275 23.0562 28.3121 23.4784L28.1212 23.6358L27.1655 24.4201ZM27.348 23.1956L27.9443 22.7052C28.2731 22.4363 28.5001 22.212 28.6283 22.0337C28.7565 21.8553 28.8387 21.6645 28.8749 21.4611C28.9237 21.1838 28.9042 20.9066 28.8136 20.6294C28.7244 20.3521 28.5642 20.0735 28.3358 19.7949C28.1073 19.5162 27.8649 19.3059 27.6099 19.1638C27.355 19.0217 27.0875 18.9478 26.8061 18.9423C26.5985 18.9409 26.3895 18.9882 26.1819 19.0858C25.9744 19.1833 25.6874 19.3825 25.321 19.6834L25.0646 19.8938L24.8083 20.1041L27.348 23.1956Z"
        fill="black" />
    <path
        d="M39.356 15.1082L41.5809 14.8547C41.5851 14.8937 41.592 14.9466 41.6032 15.0149C41.631 15.196 41.6491 15.3186 41.6561 15.3813C41.7467 16.1712 41.5892 16.8107 41.1866 17.2997C40.784 17.7887 40.171 18.0798 39.3476 18.1732C38.8879 18.2261 38.4686 18.2052 38.0938 18.1105C37.7177 18.0157 37.3791 17.8472 37.0768 17.6048C36.7801 17.3637 36.539 17.0684 36.3565 16.7201C36.1726 16.3704 36.057 15.9873 36.0096 15.5708C35.9609 15.1458 35.9887 14.7474 36.0918 14.3726C36.1949 13.9979 36.3733 13.658 36.6268 13.3515C36.8692 13.0519 37.1674 12.8109 37.5198 12.6284C37.8723 12.4459 38.2582 12.3303 38.6775 12.2829C39.1192 12.2328 39.5246 12.2676 39.8924 12.3888C40.2602 12.51 40.5987 12.7217 40.9108 13.0227L40.3006 13.6008C40.086 13.403 39.8548 13.2637 39.604 13.1829C39.3532 13.1021 39.0816 13.0798 38.7876 13.1132C38.1788 13.1829 37.7051 13.4337 37.3638 13.8683C37.0239 14.3016 36.8887 14.831 36.9598 15.4551C37.0322 16.089 37.283 16.5822 37.7135 16.9333C38.144 17.2843 38.665 17.425 39.2794 17.3554C39.8004 17.2955 40.1975 17.1283 40.4691 16.8511C40.7408 16.5738 40.8523 16.2255 40.8049 15.8062L40.7951 15.7254L39.4452 15.88L39.356 15.1082Z"
        fill="black" />
    <path
        d="M49.309 16.0222C49.1808 16.4026 48.9886 16.7383 48.7308 17.0295C48.4745 17.3207 48.1638 17.5533 47.8016 17.7261C47.4366 17.8988 47.0563 17.9977 46.6634 18.0228C46.2691 18.0479 45.8818 17.9963 45.5015 17.8668C45.1156 17.7372 44.7729 17.5422 44.4706 17.2817C44.1683 17.0211 43.9286 16.7132 43.7489 16.3594C43.565 16.0013 43.4591 15.6308 43.4313 15.2463C43.4034 14.8617 43.4536 14.4772 43.5845 14.0913C43.7141 13.7082 43.9063 13.3711 44.1613 13.0799C44.4162 12.7887 44.7269 12.5547 45.0905 12.3791C45.4527 12.205 45.8317 12.1075 46.2246 12.0852C46.6174 12.0629 47.0075 12.1172 47.3962 12.2482C47.7821 12.3777 48.1234 12.5714 48.4216 12.8263C48.7197 13.0813 48.9607 13.3878 49.1446 13.7458C49.3257 14.108 49.4316 14.4842 49.4595 14.8729C49.4859 15.2616 49.4372 15.6447 49.309 16.0222ZM48.4021 15.7171C48.494 15.4469 48.5302 15.1724 48.5135 14.8952C48.4968 14.6179 48.4285 14.3532 48.3073 14.0997C48.1903 13.8517 48.0301 13.6358 47.8267 13.4547C47.6233 13.2735 47.3892 13.1384 47.1259 13.0492C46.8626 12.9601 46.5951 12.9267 46.3235 12.9462C46.0518 12.9657 45.7913 13.0395 45.5419 13.1677C45.2925 13.2931 45.0794 13.4616 44.8997 13.672C44.7199 13.8824 44.5834 14.1248 44.4915 14.3978C44.3995 14.6681 44.3619 14.9412 44.3786 15.2156C44.3953 15.4901 44.4636 15.7534 44.5848 16.0055C44.706 16.2577 44.8676 16.475 45.071 16.6547C45.2744 16.8345 45.5085 16.9696 45.7746 17.0588C46.0351 17.1465 46.2998 17.18 46.5701 17.1591C46.8389 17.1382 47.0995 17.0643 47.3516 16.9375C47.601 16.8094 47.8155 16.6408 47.9966 16.4318C48.1764 16.2242 48.3115 15.9846 48.4021 15.7171Z"
        fill="black" />
    <path
        d="M54.4018 17.1259L56.4581 18.0105C56.4428 18.0454 56.4233 18.0955 56.3982 18.161C56.3327 18.3324 56.2882 18.4466 56.2617 18.5065C55.9468 19.2365 55.4941 19.7144 54.902 19.9387C54.3099 20.163 53.6328 20.1114 52.8721 19.784C52.4472 19.6015 52.0948 19.3744 51.8147 19.1069C51.5347 18.8395 51.3244 18.5232 51.1836 18.1624C51.0457 17.8057 50.983 17.431 50.9984 17.0367C51.0123 16.6425 51.1028 16.2524 51.2686 15.8665C51.4372 15.4736 51.6601 15.1406 51.9359 14.8676C52.2118 14.5945 52.535 14.3869 52.907 14.2476C53.2664 14.1083 53.6453 14.047 54.041 14.0637C54.4367 14.0804 54.8295 14.1724 55.2168 14.3382C55.6264 14.5137 55.9594 14.7464 56.2185 15.0334C56.4776 15.3217 56.6671 15.6728 56.7869 16.0894L55.9705 16.2886C55.8828 16.01 55.7504 15.7731 55.5735 15.5795C55.3965 15.3858 55.1722 15.2298 54.9006 15.1128C54.3377 14.8704 53.8014 14.8536 53.2901 15.0612C52.7788 15.2688 52.3999 15.6603 52.1519 16.237C51.8997 16.8236 51.8733 17.3753 52.0711 17.8935C52.2703 18.4118 52.6534 18.7935 53.2204 19.0373C53.7025 19.2449 54.1302 19.2964 54.5035 19.1905C54.8769 19.0847 55.1472 18.8381 55.313 18.4508L55.345 18.3769L54.0967 17.8392L54.4018 17.1259Z"
        fill="black" />
    <path d="M56.4473 21.6146L59.6766 16.967L60.4317 17.4923L57.2024 22.1398L56.4473 21.6146Z" fill="black" />
    <path
        d="M62.733 19.2249L63.332 19.8796L60.855 22.1491C60.4872 22.4862 60.2894 22.8248 60.2601 23.1633C60.2309 23.5032 60.3716 23.8418 60.6808 24.1789C60.9887 24.5147 61.3133 24.6832 61.6533 24.6846C61.9932 24.686 62.3485 24.5175 62.7162 24.1803L65.1933 21.9109L65.8007 22.574L63.2624 24.8992C62.7107 25.4049 62.1701 25.6431 61.6407 25.6153C61.1113 25.5874 60.5903 25.2934 60.0762 24.732C59.5621 24.1706 59.3156 23.6272 59.3351 23.1006C59.3546 22.574 59.6415 22.0571 60.1946 21.55L62.733 19.2249Z"
        fill="black" />
    <path
        d="M35.2277 19.1314L34.0519 18.0977L32.0527 19.0255L32.0694 20.597L31.207 20.9969L31.2168 14.6162L36.0914 18.7302L35.2277 19.1314ZM32.0401 18.2022L33.4458 17.5502C33.4458 17.5502 32.0485 16.2532 31.9398 16.1543C31.9454 16.2922 32.0401 18.2022 32.0401 18.2022Z"
        fill="black" />
    <path
        d="M65.4372 33.0855L65.0471 32.3263C65.153 32.2385 65.2561 32.1521 65.3606 32.0658C65.5946 31.8707 65.8287 31.6743 66.0627 31.4792C66.3093 31.273 66.5559 31.0683 66.8025 30.8621C66.9502 30.7381 67.3793 30.3675 67.6356 30.1571C67.5214 30.1627 66.7551 30.1822 66.3636 30.1878C66.0404 30.1947 65.7144 30.2003 65.3912 30.2059C65.068 30.2129 64.7448 30.217 64.4188 30.2254C64.2112 30.2296 64.0022 30.2324 63.7933 30.2365L63.7278 30.2379L63.7668 30.185C63.8922 30.0178 64.0162 29.8492 64.1402 29.6835C64.3352 29.4243 64.5275 29.1638 64.7211 28.9047C64.9134 28.6442 65.1084 28.3836 65.3007 28.1245C65.5333 27.8083 65.9945 27.1967 66.0655 27.1075C65.7451 27.1939 65.1934 27.3262 65.0067 27.375C64.696 27.4558 64.3854 27.5366 64.0747 27.6174C63.7793 27.694 63.484 27.7707 63.1886 27.8473C63.0577 27.8821 62.9267 27.9155 62.7944 27.9504L62.4043 27.1911L68.2695 25.7144L65.8454 28.7918C65.8203 28.8225 65.7855 28.8671 65.7409 28.9242C65.5765 29.1359 65.4344 29.3017 65.3188 29.4215C65.4846 29.3965 65.7019 29.3784 65.9694 29.3672C66.0418 29.3644 66.0989 29.3616 66.138 29.3589L70.0513 29.1777L65.4372 33.0855Z"
        fill="black" />
    <path
        d="M43.4864 72.4656C26.012 72.5004 11.3867 58.0882 11.7447 40.058C12.0819 23.0504 26.2001 8.68834 44.2108 9.0213C61.3689 9.33894 75.7156 23.5505 75.3381 41.4707C74.9787 58.5452 60.8799 72.5353 43.4864 72.4656ZM43.5797 71.5809C60.4884 71.5823 74.3615 57.7803 74.4688 41.0346C74.5774 23.896 60.6723 10.0397 43.8347 9.8976C26.6278 9.75271 12.7715 23.6912 12.6252 40.4551C12.4747 57.6215 26.5233 71.6631 43.5797 71.5809Z"
        fill="black" />
    <path
        d="M64.6166 40.7449C64.7378 52.2872 55.0122 62.0087 43.1049 61.7691C31.8482 61.542 22.2312 52.127 22.4834 40.2448C22.7202 29.0842 32.0878 19.4297 44.0954 19.7111C55.4426 19.9786 64.7197 29.3782 64.6166 40.7449ZM42.5476 25.9413C42.0767 24.5161 40.6376 23.3319 38.7415 22.9934C35.5233 22.4194 32.7481 23.5395 30.3644 25.5233C22.2549 32.2704 21.0136 44.728 27.5377 53.0089C27.6659 53.1719 28.2371 53.9326 28.3876 54.1011C27.5057 51.7341 28.538 50.2741 29.9367 49.9913C30.976 49.7809 32.085 50.295 32.5517 51.202C33.1577 52.3792 32.8122 53.4519 31.4288 54.6514C31.8064 55.3884 32.4653 55.72 33.2343 55.8746C34.7599 56.1797 36.3216 55.9011 37.4765 54.9342C38.5813 54.0092 39.7752 52.8765 40.4439 51.6325C41.7493 49.2098 42.6381 46.7007 43.6914 44.1526C44.9619 41.0765 46.0179 37.9099 47.3707 34.8728C48.488 32.3623 50.1682 30.1862 52.2133 28.3166C52.8862 28.7485 52.7943 28.9184 52.634 29.1232C52.3861 29.4409 51.982 29.9884 51.8372 30.3618C50.3465 33.4281 49.2041 36.6435 48.1968 39.9146C48.1328 40.086 48.0283 40.3493 48.0297 40.3284C51.5237 42.7803 53.7904 42.4808 55.444 40.0177C57.7316 36.6128 57.5909 29.7878 51.5571 27.4737C47.5379 25.9315 43.4949 25.8925 39.4241 27.1408C34.9828 28.5019 31.426 31.0374 29.2806 35.242C28.1047 37.5463 27.7077 39.9676 28.903 42.4348C29.431 43.5229 30.3185 44.1206 31.4859 44.3267C33.0713 44.6068 34.4756 44.062 35.6752 43.1398C40.5874 39.3629 42.751 34.0954 42.8207 28.0087C42.8318 27.2648 42.9265 26.9903 44.1205 26.7103C44.2598 27.7301 44.4938 28.7332 44.5161 29.7404C44.5969 33.5507 43.3124 36.9639 41.323 40.1529C40.0664 42.166 38.5367 43.9102 36.3383 44.9258C33.0839 46.4276 28.864 45.7129 27.9292 41.3259C27.5893 39.7279 27.7509 38.13 28.2886 36.5919C29.7403 32.4445 32.6241 29.5482 36.5264 27.7092C38.3444 26.8538 40.3199 26.2951 42.5476 25.9413ZM30.735 56.3511C36.3453 60.5835 42.3888 61.9334 49.0494 60.1391C59.0091 57.4544 65.3856 47.1757 63.4268 37.0545C62.5853 32.7092 60.5458 29.0271 57.3109 26.0067C57.1395 25.8465 56.8442 25.671 56.8135 25.6808C55.8063 26.0207 54.7405 26.7479 54.0676 27.5949C54.1247 27.6367 54.5928 27.9892 54.7892 28.1327C57.3234 29.9759 59.1178 32.2634 59.512 35.4997C59.9732 39.2975 57.1353 42.9224 53.4184 43.0896C51.2869 43.1857 49.4298 42.4404 47.8862 40.9107C47.2342 42.6717 46.6658 44.4201 45.9455 46.1044C44.5314 49.4118 42.6354 52.4001 39.6763 54.5692C37.2202 56.3706 34.5383 57.1925 31.4901 56.4374C31.1962 56.372 31.0945 56.3817 30.735 56.3511ZM35.2684 22.4737C36.3369 22.4737 37.3567 22.411 38.3667 22.4862C40.4857 22.6465 42.5699 23.6565 43.5089 25.7602C43.5089 25.7602 43.5841 25.7769 44.2445 25.7421C47.2105 25.6334 50.0985 25.9747 52.8723 27.0864C53.0283 27.1491 53.2665 27.1923 53.3919 27.1185C54.402 26.5139 55.3939 25.8786 56.3928 25.2531C50.5624 20.1137 41.4526 19.2388 35.2684 22.4737Z"
        fill="black" />
    <path
        d="M17.8921 41.2706C18.1853 41.2706 18.4229 41.0329 18.4229 40.7398C18.4229 40.4466 18.1853 40.209 17.8921 40.209C17.599 40.209 17.3613 40.4466 17.3613 40.7398C17.3613 41.0329 17.599 41.2706 17.8921 41.2706Z"
        fill="black" />
    <path
        d="M69.898 41.2701C70.1911 41.2701 70.4288 41.0324 70.4288 40.7393C70.4288 40.4461 70.1911 40.2085 69.898 40.2085C69.6048 40.2085 69.3672 40.4461 69.3672 40.7393C69.3672 41.0324 69.6048 41.2701 69.898 41.2701Z"
        fill="black" />
    <path
        d="M85.4883 51.7805H86.5972L88.7859 58.1333L91.0679 51.4392L93.3735 58.1333L95.5733 51.7805H96.6823L93.3373 60.7511L91.079 54.0751L88.8319 60.7511L85.4883 51.7805Z"
        fill="black" />
    <path
        d="M100.564 60.4155V56.4632L97.6387 51.7808H98.8242L101.083 55.5256L103.33 51.7808H104.51L101.59 56.4632V60.4155H100.564Z"
        fill="black" />
    <path
        d="M107.322 50.234C107.322 49.908 107.588 49.6294 107.927 49.6294C108.265 49.6294 108.506 49.9066 108.506 50.234C108.506 50.5475 108.265 50.8373 107.927 50.8373C107.576 50.8387 107.322 50.5489 107.322 50.234Z"
        fill="black" />
    <path
        d="M115.393 55.6198C115.956 55.8594 116.379 56.1785 116.664 56.5755C116.949 56.9726 117.091 57.442 117.091 57.9854C117.091 58.7795 116.839 59.4203 116.333 59.9051C115.828 60.3914 115.159 60.6338 114.324 60.6338C113.645 60.6338 113.073 60.4596 112.614 60.1113C112.154 59.763 111.843 59.2685 111.682 58.6276L112.614 58.1679C112.739 58.6903 112.947 59.0874 113.236 59.3562C113.525 59.6251 113.888 59.7603 114.324 59.7603C114.84 59.7603 115.256 59.6126 115.576 59.3144C115.895 59.0177 116.053 58.6318 116.053 58.1553C116.053 57.7694 115.942 57.4351 115.72 57.1495C115.499 56.8639 115.163 56.6243 114.715 56.4264L113.664 55.9778C113.09 55.7382 112.662 55.4289 112.381 55.0514C112.1 54.6738 111.959 54.2225 111.959 53.6945C111.959 53.0815 112.187 52.5744 112.643 52.1731C113.098 51.7719 113.681 51.5713 114.389 51.5713C114.908 51.5713 115.357 51.6813 115.736 51.9015C116.115 52.1216 116.411 52.4462 116.623 52.8753L115.773 53.4172C115.581 53.0829 115.364 52.8349 115.124 52.6719C114.884 52.5089 114.613 52.4267 114.311 52.4267C113.925 52.4267 113.61 52.5451 113.363 52.7805C113.118 53.016 112.994 53.3169 112.994 53.6833C112.994 53.9898 113.089 54.2559 113.277 54.4802C113.465 54.7045 113.759 54.9037 114.156 55.0765L115.393 55.6198Z"
        fill="black" />
    <path d="M117.365 60.4155L122.219 52.7184H118.279V51.7808H123.959L119.153 59.4362H123.765V60.4155H117.365Z"
        fill="black" />
    <path d="M104.027 60.4155L108.881 52.7184H104.941V51.7808H110.621L105.815 59.4362H110.428V60.4155H104.027Z"
        fill="black" />
    <path
        d="M128.03 51.4377L131.959 60.4152H130.844L129.724 57.7668H126.35L125.23 60.4152H124.115L128.03 51.4377ZM128.03 53.7086L126.656 56.8878H129.405L128.03 53.7086Z"
        fill="black" />
    <path
        d="M140.53 55.62C141.093 55.8597 141.516 56.1787 141.8 56.5757C142.086 56.9728 142.228 57.4423 142.228 57.9856C142.228 58.7797 141.976 59.4206 141.47 59.9054C140.964 60.3916 140.296 60.634 139.461 60.634C138.781 60.634 138.21 60.4599 137.75 60.1116C137.291 59.7633 136.98 59.2687 136.818 58.6279L137.75 58.1681C137.876 58.6906 138.083 59.0876 138.373 59.3565C138.662 59.6254 139.025 59.7605 139.461 59.7605C139.977 59.7605 140.393 59.6128 140.712 59.3147C141.031 59.018 141.19 58.632 141.19 58.1556C141.19 57.7697 141.079 57.4353 140.857 57.1497C140.636 56.8641 140.3 56.6245 139.851 56.4267L138.801 55.9781C138.227 55.7385 137.799 55.4292 137.518 55.0516C137.236 54.6741 137.096 54.2227 137.096 53.6947C137.096 53.0817 137.324 52.5746 137.78 52.1734C138.235 51.7721 138.818 51.5715 139.525 51.5715C140.045 51.5715 140.493 51.6816 140.872 51.9017C141.251 52.1218 141.548 52.4464 141.76 52.8755L140.91 53.4175C140.718 53.0831 140.5 52.8351 140.261 52.6721C140.021 52.5091 139.75 52.4269 139.447 52.4269C139.061 52.4269 138.746 52.5453 138.501 52.7808C138.256 53.0162 138.132 53.3172 138.132 53.6836C138.132 53.9901 138.227 54.2561 138.415 54.4804C138.603 54.7047 138.897 54.904 139.294 55.0767L140.53 55.62Z"
        fill="black" />
    <path d="M142.5 60.4155L147.354 52.7184H143.414V51.7808H149.094L144.287 59.4362H148.9V60.4155H142.5Z"
        fill="black" />
    <path
        d="M150.18 60.4153V51.7805H151.194V55.6201L154.822 51.7805H156.049L152.345 55.6674L156.414 60.4153H155.086L151.194 55.7677V60.4153H150.18Z"
        fill="black" />
    <path
        d="M165.077 56.116C165.077 56.7332 164.963 57.3155 164.734 57.8616C164.506 58.4077 164.174 58.8939 163.737 59.3189C163.299 59.7438 162.798 60.0712 162.229 60.301C161.661 60.5309 161.071 60.6465 160.461 60.6465C159.851 60.6465 159.265 60.5309 158.699 60.301C158.135 60.0712 157.633 59.7438 157.197 59.3189C156.757 58.8898 156.421 58.4022 156.191 57.856C155.961 57.3099 155.846 56.729 155.846 56.116C155.846 55.4988 155.961 54.9151 156.191 54.3676C156.421 53.8187 156.757 53.3311 157.197 52.902C157.63 52.4812 158.129 52.1566 158.696 51.9282C159.263 51.6997 159.851 51.5854 160.461 51.5854C161.076 51.5854 161.666 51.6997 162.235 51.9282C162.803 52.1566 163.305 52.4812 163.737 52.902C164.173 53.3269 164.506 53.8131 164.734 54.362C164.963 54.9095 165.077 55.4946 165.077 56.116ZM160.463 59.6783C160.935 59.6783 161.385 59.5891 161.811 59.4094C162.237 59.2311 162.623 58.9706 162.965 58.6278C163.303 58.2893 163.561 57.9062 163.738 57.4771C163.915 57.048 164.004 56.5938 164.004 56.1146C164.004 55.6312 163.915 55.1714 163.735 54.734C163.555 54.2965 163.299 53.912 162.965 53.5777C162.626 53.2391 162.243 52.9814 161.817 52.8045C161.389 52.6275 160.938 52.5384 160.463 52.5384C159.982 52.5384 159.528 52.6275 159.099 52.8045C158.67 52.9814 158.291 53.2391 157.959 53.5777C157.621 53.9204 157.363 54.3077 157.186 54.7396C157.009 55.1728 156.92 55.6298 156.92 56.1132C156.92 56.5925 157.008 57.0452 157.183 57.4701C157.359 57.895 157.616 58.2796 157.959 58.6265C158.306 58.972 158.691 59.2339 159.113 59.4108C159.536 59.5891 159.986 59.6783 160.463 59.6783Z"
        fill="black" />
    <path
        d="M166.597 60.4154V56.8057L165.594 57.5023L165.074 56.7946L166.596 55.7274V51.782H167.633V55.1381L169.107 54.1002L169.627 54.826L167.633 56.2234V59.4374H170.895V60.4168H166.597V60.4154Z"
        fill="black" />
    <path
        d="M175.29 51.4377L179.218 60.4152H178.104L176.984 57.7668H173.61L172.49 60.4152H171.375L175.29 51.4377ZM175.29 53.7086L173.916 56.8878H176.665L175.29 53.7086Z"
        fill="black" />
    <path d="M183.826 60.4152V51.4377L190.143 58.338V51.7791H191.122V60.7496L184.806 53.9259V60.4138H183.826V60.4152Z"
        fill="black" />
    <path
        d="M195.915 51.4377L199.843 60.4152H198.729L197.609 57.7668H194.235L193.115 60.4152H192L195.915 51.4377ZM195.915 53.7086L194.541 56.8878H197.29L195.915 53.7086Z"
        fill="black" />
    <path
        d="M200.488 51.7808H201.526V57.1542C201.526 58.0277 201.711 58.6685 202.083 59.0767C202.455 59.4849 203.037 59.6897 203.831 59.6897C204.625 59.6897 205.209 59.4849 205.58 59.0767C205.952 58.6671 206.137 58.0263 206.137 57.1542V51.7808H207.18V57.1542C207.18 58.3216 206.902 59.1965 206.346 59.7761C205.79 60.3556 204.951 60.6454 203.83 60.6454C202.713 60.6454 201.877 60.3556 201.321 59.7761C200.765 59.1965 200.486 58.3216 200.486 57.1542V51.7808H200.488Z"
        fill="black" />
    <path
        d="M208.861 60.4151V51.7803H209.876V55.6198L213.503 51.7803H214.731L211.026 55.6672L215.096 60.4151H213.768L209.876 55.7675V60.4151H208.861Z"
        fill="black" />
    <path
        d="M222.864 55.62C223.427 55.8597 223.85 56.1787 224.134 56.5757C224.42 56.9728 224.562 57.4423 224.562 57.9856C224.562 58.7797 224.31 59.4206 223.804 59.9054C223.298 60.3916 222.63 60.634 221.795 60.634C221.115 60.634 220.544 60.4599 220.084 60.1116C219.625 59.7633 219.314 59.2687 219.152 58.6279L220.084 58.1681C220.21 58.6906 220.417 59.0876 220.707 59.3565C220.995 59.6254 221.359 59.7605 221.795 59.7605C222.311 59.7605 222.727 59.6128 223.046 59.3147C223.365 59.018 223.524 58.632 223.524 58.1556C223.524 57.7697 223.413 57.4353 223.191 57.1497C222.97 56.8641 222.634 56.6245 222.185 56.4267L221.135 55.9781C220.561 55.7385 220.133 55.4292 219.852 55.0516C219.57 54.6741 219.43 54.2227 219.43 53.6947C219.43 53.0817 219.658 52.5746 220.114 52.1734C220.569 51.7721 221.152 51.5715 221.859 51.5715C222.379 51.5715 222.827 51.6816 223.206 51.9017C223.585 52.1218 223.882 52.4464 224.094 52.8755L223.244 53.4175C223.052 53.0831 222.834 52.8351 222.595 52.6721C222.355 52.5091 222.084 52.4269 221.781 52.4269C221.395 52.4269 221.08 52.5453 220.834 52.7808C220.589 53.0162 220.465 53.3172 220.465 53.6836C220.465 53.9901 220.559 54.2561 220.747 54.4804C220.936 54.7047 221.23 54.904 221.627 55.0767L222.864 55.62Z"
        fill="black" />
    <path
        d="M226.933 56.5395V60.4153H225.93V51.7805H227.741C228.373 51.7805 228.84 51.814 229.138 51.8808C229.436 51.9477 229.697 52.0578 229.917 52.211C230.193 52.4074 230.407 52.6777 230.563 53.019C230.718 53.3618 230.796 53.7407 230.796 54.1572C230.796 54.5738 230.718 54.9541 230.563 55.2955C230.407 55.6382 230.193 55.907 229.917 56.1035C229.697 56.2609 229.438 56.3724 229.141 56.4392C228.844 56.5061 228.377 56.5395 227.741 56.5395H227.452H226.933ZM226.933 55.6089H227.452C228.333 55.6089 228.926 55.5058 229.23 55.2996C229.535 55.0934 229.687 54.7326 229.687 54.2171C229.687 53.6669 229.531 53.2796 229.218 53.0553C228.905 52.831 228.316 52.7195 227.451 52.7195H226.931V55.6089H226.933Z"
        fill="black" />
    <path
        d="M240.896 56.116C240.896 56.7332 240.781 57.3155 240.553 57.8616C240.324 58.4077 239.993 58.8939 239.555 59.3189C239.118 59.7438 238.616 60.0712 238.048 60.301C237.48 60.5309 236.89 60.6465 236.28 60.6465C235.67 60.6465 235.083 60.5309 234.519 60.301C233.955 60.0712 233.453 59.7438 233.017 59.3189C232.577 58.8898 232.241 58.4022 232.012 57.856C231.782 57.3099 231.666 56.729 231.666 56.116C231.666 55.4988 231.782 54.9151 232.012 54.3676C232.241 53.8187 232.577 53.3311 233.017 52.902C233.451 52.4812 233.949 52.1566 234.516 51.9282C235.083 51.6997 235.671 51.5854 236.282 51.5854C236.896 51.5854 237.487 51.6997 238.055 51.9282C238.623 52.1566 239.124 52.4812 239.557 52.902C239.993 53.3269 240.326 53.8131 240.554 54.362C240.781 54.9095 240.896 55.4946 240.896 56.116ZM236.28 59.6783C236.752 59.6783 237.202 59.5891 237.629 59.4094C238.056 59.2311 238.441 58.9706 238.782 58.6278C239.121 58.2893 239.379 57.9062 239.555 57.4771C239.732 57.048 239.822 56.5938 239.822 56.1146C239.822 55.6312 239.732 55.1714 239.553 54.734C239.373 54.2965 239.117 53.912 238.782 53.5777C238.444 53.2391 238.061 52.9814 237.634 52.8045C237.208 52.6275 236.755 52.5384 236.28 52.5384C235.8 52.5384 235.345 52.6275 234.916 52.8045C234.487 52.9814 234.108 53.2391 233.777 53.5777C233.438 53.9204 233.18 54.3077 233.003 54.7396C232.827 55.1728 232.737 55.6298 232.737 56.1132C232.737 56.5925 232.825 57.0452 233.001 57.4701C233.176 57.895 233.434 58.2796 233.777 58.6265C234.124 58.972 234.508 59.2339 234.93 59.4108C235.355 59.5891 235.804 59.6783 236.28 59.6783Z"
        fill="black" />
    <path
        d="M242.618 60.4151V56.8055L241.615 57.502L241.096 56.7943L242.617 55.7272V51.7817H243.655V55.1378L245.129 54.0999L245.649 54.8258L243.655 56.2231V59.4371H246.919V60.4165H242.618V60.4151Z"
        fill="black" />
    <path
        d="M91.1049 42.5717H85.6367V21.2244H91.7178C94.0806 21.2244 95.7566 21.3414 96.7485 21.5727C97.7196 21.8262 98.5318 22.2247 99.1838 22.7694C99.9611 23.4214 100.559 24.228 100.977 25.1907C101.395 26.1729 101.604 27.2679 101.604 28.473C101.604 29.756 101.395 30.8748 100.977 31.8291C100.608 32.7917 100.01 33.59 99.1838 34.2211C98.5903 34.6878 97.877 35.0236 97.0411 35.2284C96.2944 35.4318 94.9945 35.5335 93.1416 35.5335H92.1525H91.1049V42.5717ZM91.1049 30.8511H92.2096C93.5861 30.8511 94.5599 30.6505 95.1325 30.2478C95.6855 29.8759 95.9614 29.2225 95.9614 28.2905C95.9614 27.3974 95.6925 26.758 95.1548 26.3707C94.617 25.9834 93.6543 25.7897 92.2681 25.7897H91.1049V30.8511Z"
        fill="black" />
    <path
        d="M104.562 42.5717V21.2244H117.646V25.9068H110.234V29.6H117.223V34.1668H110.234V37.8029H117.646V42.5731H104.562V42.5717Z"
        fill="black" />
    <path
        d="M121.496 42.5717V21.2244H125.946C129.31 21.2244 131.659 21.3804 132.992 21.6911C134.376 22.0017 135.584 22.5228 136.616 23.2514C137.98 24.1848 139.007 25.3899 139.699 26.868C140.4 28.3559 140.751 30.0375 140.751 31.914C140.751 33.7906 140.4 35.4722 139.699 36.9601C139.008 38.4187 137.98 39.6238 136.616 40.5767C135.545 41.3053 134.366 41.811 133.08 42.0924C131.797 42.4129 129.744 42.5717 126.924 42.5717H125.946H121.496ZM127.254 37.8029H128.232C130.529 37.8029 132.198 37.3265 133.239 36.3721C134.289 35.4387 134.816 33.955 134.816 31.921C134.816 29.8968 134.291 28.4033 133.239 27.4406C132.189 26.4766 130.518 25.9959 128.232 25.9959H127.254V37.8029Z"
        fill="black" />
    <path
        d="M141.871 42.5717L149.238 21.2244H156.533L163.915 42.5717H158.122L157.043 38.7321H148.77L147.661 42.5717H141.871ZM150.027 34.6028H155.819L153.646 27.5549C153.597 27.4281 153.505 27.0784 153.369 26.5044C153.203 25.8329 153.053 25.2255 152.916 24.6808C152.779 25.1767 152.664 25.6783 152.566 26.184C152.41 26.6702 152.279 27.1272 152.172 27.5549L150.027 34.6028Z"
        fill="black" />
    <path
        d="M176.088 34.6906V30.2409H187.514C187.514 30.4443 187.524 30.6031 187.544 30.7187V31.4919C187.544 35.1796 186.581 38.0314 184.657 40.0445C182.713 42.0785 179.977 43.0941 176.45 43.0941C174.768 43.0941 173.233 42.8364 171.844 42.3209C170.502 41.8055 169.297 41.0072 168.229 39.9275C167.208 38.8854 166.426 37.6789 165.883 36.3067C165.592 35.5767 165.377 34.8439 165.241 34.1097C165.104 33.3755 165.037 32.6427 165.037 31.9127C165.037 30.3356 165.309 28.8714 165.853 27.5187C166.398 26.2049 167.209 24.9984 168.289 23.8978C169.318 22.8669 170.543 22.0784 171.962 21.5337C173.361 20.9987 174.857 20.7312 176.453 20.7312C178.533 20.7312 180.379 21.1478 181.992 21.9823C182.507 22.2344 183.014 22.5465 183.515 22.9212C184.015 23.2946 184.477 23.7098 184.899 24.1639C185.321 24.6195 185.709 25.1141 186.058 25.6476L181.01 28.0843C180.406 27.2526 179.731 26.6312 178.981 26.2202C178.212 25.819 177.367 25.6184 176.443 25.6184C174.692 25.6184 173.325 26.2007 172.343 27.3626C171.351 28.5162 170.855 30.1127 170.855 32.1551C170.855 34.2072 171.351 35.8191 172.344 36.9907C173.326 38.154 174.694 38.7349 176.446 38.7349C177.935 38.7349 179.165 38.3602 180.139 37.6093C181.15 36.8695 181.73 35.8971 181.876 34.692H176.088V34.6906Z"
        fill="black" />
    <path
        d="M213.037 31.9419C213.037 33.4897 212.759 34.9344 212.205 36.2774C211.65 37.5912 210.824 38.7893 209.725 39.869C208.636 40.9194 207.39 41.7274 205.99 42.2931C204.522 42.8671 203.067 43.154 201.628 43.154C200.169 43.154 198.715 42.8671 197.266 42.2931C195.837 41.7191 194.601 40.9111 193.562 39.869C192.511 38.8659 191.684 37.6594 191.082 36.2482C190.498 34.8662 190.207 33.4312 190.207 31.9419C190.207 30.4526 190.498 29.0177 191.082 27.6357C191.685 26.2244 192.511 25.0179 193.562 24.0149C194.632 22.9449 195.866 22.1271 197.266 21.5629C198.627 21.0084 200.082 20.7312 201.628 20.7312C203.175 20.7312 204.637 21.0112 206.019 21.5699C207.4 22.1299 208.633 22.9449 209.718 24.0149C210.803 25.0848 211.632 26.2927 212.206 27.6357C212.759 28.9787 213.037 30.415 213.037 31.9419ZM201.621 38.239C203.229 38.239 204.575 37.6385 205.656 36.4376C206.192 35.8428 206.586 35.174 206.84 34.4315C207.093 33.6903 207.22 32.86 207.22 31.9419C207.22 30.1559 206.689 28.6569 205.626 27.4462C204.544 26.2453 203.209 25.6449 201.621 25.6449C199.994 25.6449 198.654 26.2453 197.602 27.4462C196.55 28.6471 196.023 30.1461 196.023 31.9419C196.023 33.8074 196.54 35.3148 197.573 36.4669C198.634 37.6483 199.983 38.239 201.621 38.239Z"
        fill="black" />
    <path
        d="M226.82 34.6906V30.2409H238.247C238.247 30.4443 238.256 30.6031 238.276 30.7187V31.4919C238.276 35.1796 237.313 38.0314 235.389 40.0445C233.446 42.0785 230.71 43.0941 227.182 43.0941C225.501 43.0941 223.965 42.8364 222.576 42.3209C221.235 41.8055 220.03 41.0072 218.961 39.9275C217.94 38.8854 217.158 37.6789 216.615 36.3067C216.324 35.5767 216.109 34.8439 215.973 34.1097C215.836 33.3755 215.77 32.6427 215.77 31.9127C215.77 30.3356 216.041 28.8714 216.586 27.5187C217.131 26.2049 217.941 24.9984 219.021 23.8978C220.051 22.8669 221.275 22.0784 222.695 21.5337C224.094 20.9987 225.59 20.7312 227.185 20.7312C229.265 20.7312 231.111 21.1478 232.724 21.9823C233.24 22.2344 233.747 22.5465 234.247 22.9212C234.747 23.2946 235.21 23.7098 235.632 24.1639C236.054 24.6195 236.441 25.1141 236.791 25.6476L231.742 28.0843C231.139 27.2526 230.463 26.6312 229.714 26.2202C228.945 25.819 228.099 25.6184 227.175 25.6184C225.424 25.6184 224.057 26.2007 223.075 27.3626C222.083 28.5162 221.587 30.1127 221.587 32.1551C221.587 34.2072 222.083 35.8191 223.077 36.9907C224.059 38.154 225.427 38.7349 227.178 38.7349C228.667 38.7349 229.898 38.3602 230.871 37.6093C231.883 36.8695 232.462 35.8971 232.609 34.692H226.82V34.6906Z"
        fill="black" />
    <path d="M241.982 42.5717V21.2244H247.857V42.5717H241.982Z" fill="black" />
    <path
        d="M252.409 21.2244H258.225V31.6229C258.225 33.2097 258.264 34.3103 258.342 34.9233C258.44 35.6533 258.571 36.2078 258.737 36.5881C258.942 37.144 259.326 37.5521 259.89 37.8155C260.455 38.1178 261.136 38.2682 261.934 38.2682C262.723 38.2682 263.398 38.1178 263.964 37.8155C264.479 37.5619 264.868 37.1537 265.131 36.5881C265.287 36.1994 265.414 35.6449 265.51 34.9233C265.598 34.3395 265.641 33.2389 265.641 31.6229V30.1629V21.2244H271.428V32.5187C271.428 34.8341 271.288 36.556 271.006 37.6845C270.743 38.8032 270.268 39.7617 269.577 40.5586C268.819 41.4432 267.812 42.091 266.559 42.4992C265.314 42.9353 263.772 43.154 261.934 43.154C260.056 43.154 258.51 42.9353 257.293 42.4992C256.062 42.091 255.059 41.4432 254.283 40.5586C253.614 39.7812 253.139 38.8227 252.858 37.6845C252.557 36.5365 252.406 34.8146 252.406 32.5187V30.3008V21.2244H252.409Z"
        fill="black" />
    <path
        d="M300.329 42.5716H294.887L293.632 33.3406C293.524 32.5144 293.446 31.79 293.399 31.1672C293.331 30.5543 293.263 29.6849 293.194 28.5565C293.019 29.5679 292.747 30.695 292.378 31.9391C292.3 32.1829 292.241 32.3918 292.202 32.566L289.299 42.5688H285.418L282.514 32.566C282.485 32.4016 282.427 32.1926 282.339 31.9391C281.929 30.6267 281.663 29.4996 281.536 28.5565C281.458 29.6264 281.386 30.4233 281.318 30.9485C281.288 31.2202 281.244 31.6186 281.187 32.1438C281.128 32.6691 281.085 33.0675 281.056 33.3392L279.801 42.5702H274.387L277.684 21.2229H283.448L286.673 32.2316C286.731 32.4364 286.77 32.5674 286.79 32.6245C287.071 33.5384 287.262 34.3743 287.358 35.1322C287.378 34.8702 287.45 34.4426 287.577 33.8491C287.616 33.7042 287.761 33.1539 288.015 32.2024L291.268 21.2229H297.045L300.329 42.5716Z"
        fill="black" />
    <path
        d="M248.143 60.4151V51.7803H252.695V52.7179H249.168V55.1949H252.695V56.1506H249.168V59.4593H252.695V60.4151H248.143Z"
        fill="black" />
    <path
        d="M261.44 53.845C261.027 53.3964 260.587 53.0662 260.119 52.8517C259.651 52.6371 259.134 52.5299 258.568 52.5299C258.113 52.5299 257.667 52.6218 257.232 52.8071C256.798 52.9924 256.421 53.2501 256.102 53.5803C255.772 53.923 255.524 54.3047 255.36 54.7269C255.194 55.149 255.112 55.6171 255.112 56.127C255.112 56.5282 255.161 56.8974 255.259 57.2359C255.357 57.5745 255.505 57.8851 255.702 58.168C256.048 58.6597 256.474 59.0373 256.98 59.3034C257.486 59.5695 258.03 59.7018 258.617 59.7018C259.167 59.7018 259.679 59.5876 260.151 59.3591C260.623 59.1306 261.054 58.7907 261.442 58.3393V59.7018C261.013 60.0125 260.552 60.2479 260.059 60.4068C259.566 60.5656 259.056 60.645 258.528 60.645C258.072 60.645 257.628 60.5767 257.195 60.4416C256.761 60.3064 256.357 60.1086 255.98 59.8495C255.35 59.4134 254.869 58.8757 254.538 58.239C254.205 57.6023 254.039 56.9016 254.039 56.1395C254.039 55.475 254.151 54.8704 254.372 54.3256C254.594 53.7809 254.933 53.2863 255.389 52.8419C255.829 52.417 256.317 52.0994 256.852 51.889C257.387 51.6786 257.971 51.5728 258.603 51.5728C259.102 51.5728 259.587 51.648 260.055 51.7998C260.523 51.9517 260.984 52.1857 261.441 52.5048V53.845H261.44Z"
        fill="black" />
    <path d="M261.703 60.4153L266.557 52.7181H262.617V51.7805H268.297L263.491 59.4359H268.103V60.4153H261.703Z"
        fill="black" />
    <path d="M269.393 60.4152V51.4377L275.709 58.338V51.7791H276.689V60.7496L270.372 53.9259V60.4138H269.393V60.4152Z"
        fill="black" />
    <path
        d="M280.875 60.4155V56.4632L277.949 51.7808H279.135L281.393 55.5256L283.64 51.7808H284.82L281.9 56.4632V60.4155H280.875Z"
        fill="black" />
    <path
        d="M291.795 53.845C291.383 53.3964 290.942 53.0662 290.474 52.8517C290.006 52.6371 289.489 52.5299 288.924 52.5299C288.468 52.5299 288.022 52.6218 287.588 52.8071C287.153 52.9924 286.777 53.2501 286.458 53.5803C286.128 53.923 285.88 54.3047 285.715 54.7269C285.549 55.149 285.467 55.6171 285.467 56.127C285.467 56.5282 285.516 56.8974 285.615 57.2359C285.712 57.5745 285.86 57.8851 286.058 58.168C286.403 58.6597 286.83 59.0373 287.335 59.3034C287.841 59.5695 288.386 59.7018 288.972 59.7018C289.523 59.7018 290.034 59.5876 290.506 59.3591C290.979 59.1306 291.409 58.7907 291.798 58.3393V59.7018C291.369 60.0125 290.908 60.2479 290.414 60.4068C289.921 60.5656 289.411 60.645 288.883 60.645C288.428 60.645 287.983 60.5767 287.55 60.4416C287.117 60.3064 286.713 60.1086 286.335 59.8495C285.705 59.4134 285.225 58.8757 284.893 58.239C284.56 57.6023 284.395 56.9016 284.395 56.1395C284.395 55.475 284.506 54.8704 284.727 54.3256C284.949 53.7809 285.289 53.2863 285.745 52.8419C286.185 52.417 286.672 52.0994 287.207 51.889C287.742 51.6786 288.326 51.5728 288.959 51.5728C289.457 51.5728 289.942 51.648 290.409 51.7998C290.877 51.9517 291.338 52.1857 291.795 52.5048V53.845Z"
        fill="black" />
    <path
        d="M293.547 60.4153V51.7805H294.574V55.1018H299.163V51.7805H300.206V60.4153H299.163V56.0798H294.574V60.4153H293.547Z"
        fill="black" />
</svg>